solid OpenSCAD_Model
  facet normal -0.80112 0.394018 -0.450506
    outer loop
      vertex -5.87479 5.36489 0
      vertex -6.99948 5.3649 2
      vertex -4 9.17674 0
    endloop
  endfacet
  facet normal -0.741723 0.65627 0.138406
    outer loop
      vertex -4 9.17674 0
      vertex -6.99948 5.3649 2
      vertex -4 8.75494 2
    endloop
  endfacet
  facet normal -0.413248 0.365638 0.833988
    outer loop
      vertex -4 8.75494 2
      vertex -6.99948 5.3649 2
      vertex -4 1.91221 5
    endloop
  endfacet
  facet normal -0.658915 0.0776748 0.748197
    outer loop
      vertex -4 1.91221 5
      vertex -6.99948 5.3649 2
      vertex -4.5464 -2.7229 5
    endloop
  endfacet
  facet normal -0.672912 0.0690865 0.736489
    outer loop
      vertex -4.5464 -2.7229 5
      vertex -6.99948 5.3649 2
      vertex -5.15279 -8.6292 5
    endloop
  endfacet
  facet normal -0.960412 -0.0688706 0.269935
    outer loop
      vertex -6.1501 -5.5 2.25
      vertex -5.99597 -8.6292 2
      vertex -5.15279 -8.6292 5
    endloop
  endfacet
  facet normal -0.960412 -0.0688706 0.269935
    outer loop
      vertex -5.86904 -5.5 3.25
      vertex -6.1501 -5.5 2.25
      vertex -5.15279 -8.6292 5
    endloop
  endfacet
  facet normal -0.960412 -0.0688706 0.269935
    outer loop
      vertex -6.99948 5.3649 2
      vertex -5.99597 -8.6292 2
      vertex -6.1501 -5.5 2.25
    endloop
  endfacet
  facet normal -0.960412 -0.0688706 0.269935
    outer loop
      vertex -6.99948 5.3649 2
      vertex -6.1501 -5.5 2.25
      vertex -6.36523 -2.5 2.25
    endloop
  endfacet
  facet normal -0.960412 -0.0688706 0.269935
    outer loop
      vertex -6.99948 5.3649 2
      vertex -6.36523 -2.5 2.25
      vertex -6.08417 -2.5 3.25
    endloop
  endfacet
  facet normal -0.960412 -0.0688706 0.269935
    outer loop
      vertex -6.99948 5.3649 2
      vertex -6.08417 -2.5 3.25
      vertex -5.15279 -8.6292 5
    endloop
  endfacet
  facet normal -0.960412 -0.0688706 0.269935
    outer loop
      vertex -5.86904 -5.5 3.25
      vertex -5.15279 -8.6292 5
      vertex -6.08417 -2.5 3.25
    endloop
  endfacet
  facet normal -0.869936 -0.0623826 -0.489204
    outer loop
      vertex -5.99597 -8.6292 2
      vertex -6.99948 5.3649 2
      vertex -5.87479 5.36489 0
    endloop
  endfacet
  facet normal -0.998169 0 -0.0604791
    outer loop
      vertex -5.87479 -7.49054 0
      vertex -5.99597 -8.6292 2
      vertex -5.87479 5.36489 0
    endloop
  endfacet
  facet normal 0 0 -1
    outer loop
      vertex -5.87479 -7.49054 0
      vertex -5.87479 5.36489 0
      vertex -3.00311 -10 0
    endloop
  endfacet
  facet normal 0 0 -1
    outer loop
      vertex -3.00311 -10 0
      vertex -5.87479 5.36489 0
      vertex -4 9.17674 0
    endloop
  endfacet
  facet normal 0 0 -1
    outer loop
      vertex -3.00311 -10 0
      vertex -4 9.17674 0
      vertex 4 9.17674 0
    endloop
  endfacet
  facet normal 0 0 -1
    outer loop
      vertex -3.00311 -10 0
      vertex 4 9.17674 0
      vertex 5.87479 5.36489 0
    endloop
  endfacet
  facet normal 0 0 -1
    outer loop
      vertex -3.00311 -10 0
      vertex 5.87479 5.36489 0
      vertex 5.87479 -7.49054 0
    endloop
  endfacet
  facet normal 0 0 -1
    outer loop
      vertex -3.00311 -10 0
      vertex 5.87479 -7.49054 0
      vertex 3.00311 -10 0
    endloop
  endfacet
  facet normal 0 0.924721 -0.380645
    outer loop
      vertex 4 9.17674 0
      vertex -4 9.17674 0
      vertex 0 10 2
    endloop
  endfacet
  facet normal -0.291352 0.936026 0.197406
    outer loop
      vertex -4 9.17674 0
      vertex -4 8.75494 2
      vertex 0 10 2
    endloop
  endfacet
  facet normal -0.107622 0.345755 0.932132
    outer loop
      vertex 0 10 2
      vertex -4 8.75494 2
      vertex 0 1.91221 5
    endloop
  endfacet
  facet normal 0 0.401527 0.915847
    outer loop
      vertex -4 8.75494 2
      vertex -4 1.91221 5
      vertex 0 1.91221 5
    endloop
  endfacet
  facet normal 0 0 1
    outer loop
      vertex -4.40211 -4.38197 5
      vertex -5.15279 -8.6292 5
      vertex -3.00311 -10 5
    endloop
  endfacet
  facet normal 0 0 1
    outer loop
      vertex -0.597887 -4.38197 5
      vertex 3.00311 -10 5
      vertex 1.32443 -6.61803 5
    endloop
  endfacet
  facet normal 0 0 1
    outer loop
      vertex 4 1.91221 5
      vertex -4.5464 -2.7229 5
      vertex 4.5464 -2.7229 5
    endloop
  endfacet
  facet normal 0 0 1
    outer loop
      vertex 0 1.91221 5
      vertex -4.5464 -2.7229 5
      vertex 4 1.91221 5
    endloop
  endfacet
  facet normal 0 0 1
    outer loop
      vertex -4 1.91221 5
      vertex -4.5464 -2.7229 5
      vertex 0 1.91221 5
    endloop
  endfacet
  facet normal 0 0 1
    outer loop
      vertex 3.00311 -10 5
      vertex -3.67557 -6.61803 5
      vertex -3.00311 -10 5
    endloop
  endfacet
  facet normal 0 0 1
    outer loop
      vertex 3.67557 -6.61803 5
      vertex 1.32443 -6.61803 5
      vertex 5.15279 -8.6292 5
    endloop
  endfacet
  facet normal 0 0 1
    outer loop
      vertex -4.5464 -2.7229 5
      vertex -5.15279 -8.6292 5
      vertex -4.40211 -4.38197 5
    endloop
  endfacet
  facet normal 0 0 1
    outer loop
      vertex 4.5464 -2.7229 5
      vertex -4.5464 -2.7229 5
      vertex -2.5 -3 5
    endloop
  endfacet
  facet normal 0 0 1
    outer loop
      vertex 0.597887 -4.38197 5
      vertex 2.5 -3 5
      vertex -0.597887 -4.38197 5
    endloop
  endfacet
  facet normal 0 0 1
    outer loop
      vertex 2.5 -3 5
      vertex -2.5 -3 5
      vertex -0.597887 -4.38197 5
    endloop
  endfacet
  facet normal 0 0 1
    outer loop
      vertex 3.00311 -10 5
      vertex -1.32443 -6.61803 5
      vertex -3.67557 -6.61803 5
    endloop
  endfacet
  facet normal 0 0 1
    outer loop
      vertex -0.597887 -4.38197 5
      vertex -1.32443 -6.61803 5
      vertex 3.00311 -10 5
    endloop
  endfacet
  facet normal 0 0 1
    outer loop
      vertex 5.15279 -8.6292 5
      vertex 1.32443 -6.61803 5
      vertex 3.00311 -10 5
    endloop
  endfacet
  facet normal 0 0 1
    outer loop
      vertex 2.5 -3 5
      vertex 4.40211 -4.38197 5
      vertex 4.5464 -2.7229 5
    endloop
  endfacet
  facet normal 0 0 1
    outer loop
      vertex 4.5464 -2.7229 5
      vertex -2.5 -3 5
      vertex 2.5 -3 5
    endloop
  endfacet
  facet normal 0 0 1
    outer loop
      vertex 4.5464 -2.7229 5
      vertex 4.40211 -4.38197 5
      vertex 5.15279 -8.6292 5
    endloop
  endfacet
  facet normal 0 0 1
    outer loop
      vertex 4.40211 -4.38197 5
      vertex 3.67557 -6.61803 5
      vertex 5.15279 -8.6292 5
    endloop
  endfacet
  facet normal 0 0 1
    outer loop
      vertex -3.67557 -6.61803 5
      vertex -4.40211 -4.38197 5
      vertex -3.00311 -10 5
    endloop
  endfacet
  facet normal 0 0 1
    outer loop
      vertex 1.32443 -6.61803 5
      vertex 0.597887 -4.38197 5
      vertex -0.597887 -4.38197 5
    endloop
  endfacet
  facet normal 0 0 1
    outer loop
      vertex -4.40211 -4.38197 5
      vertex -2.5 -3 5
      vertex -4.5464 -2.7229 5
    endloop
  endfacet
  facet normal -0.413597 -0.903008 0.116246
    outer loop
      vertex -5.15279 -8.6292 5
      vertex -5.99597 -8.6292 2
      vertex -3.00311 -10 2
    endloop
  endfacet
  facet normal -0.537662 -0.84316 0
    outer loop
      vertex -3.00311 -10 5
      vertex -5.15279 -8.6292 5
      vertex -3.00311 -10 2
    endloop
  endfacet
  facet normal -0.41642 -0.909172 9.09172e-07
    outer loop
      vertex -3.00311 -10 2
      vertex -5.99597 -8.6292 2
      vertex -3.00311 -10 0
    endloop
  endfacet
  facet normal -0.59585 -0.681857 -0.424304
    outer loop
      vertex -3.00311 -10 0
      vertex -5.99597 -8.6292 2
      vertex -5.87479 -7.49054 0
    endloop
  endfacet
  facet normal 0 0 1
    outer loop
      vertex -6.1501 -5.5 2.25
      vertex -4.5 -5.5 2.25
      vertex -4.5 -2.5 2.25
    endloop
  endfacet
  facet normal 0 0 1
    outer loop
      vertex -6.36523 -2.5 2.25
      vertex -6.1501 -5.5 2.25
      vertex -4.5 -2.5 2.25
    endloop
  endfacet
  facet normal 0 1 0
    outer loop
      vertex -4.5 -5.5 3.25
      vertex -4.5 -5.5 2.25
      vertex -5.86904 -5.5 3.25
    endloop
  endfacet
  facet normal 0 1 0
    outer loop
      vertex -5.86904 -5.5 3.25
      vertex -4.5 -5.5 2.25
      vertex -6.1501 -5.5 2.25
    endloop
  endfacet
  facet normal 0 0 -1
    outer loop
      vertex -4.5 -5.5 3.25
      vertex -5.86904 -5.5 3.25
      vertex -4.5 -2.5 3.25
    endloop
  endfacet
  facet normal 0 0 -1
    outer loop
      vertex -4.5 -2.5 3.25
      vertex -5.86904 -5.5 3.25
      vertex -6.08417 -2.5 3.25
    endloop
  endfacet
  facet normal 0 -1 0
    outer loop
      vertex -4.5 -2.5 2.25
      vertex -4.5 -2.5 3.25
      vertex -6.08417 -2.5 3.25
    endloop
  endfacet
  facet normal 0 -1 0
    outer loop
      vertex -6.36523 -2.5 2.25
      vertex -4.5 -2.5 2.25
      vertex -6.08417 -2.5 3.25
    endloop
  endfacet
  facet normal 0 -1 1e-06
    outer loop
      vertex -1.17557 -10 0.881966
      vertex -3.00311 -10 0
      vertex 3.00311 -10 0
    endloop
  endfacet
  facet normal 0 -1 1e-06
    outer loop
      vertex -1.17557 -10 0.881966
      vertex -1.53884 -10 2
      vertex -3.00311 -10 2
    endloop
  endfacet
  facet normal 0 -1 1e-06
    outer loop
      vertex 3.00311 -10 2
      vertex 1.53884 -10 2
      vertex 3.00311 -10 0
    endloop
  endfacet
  facet normal 0 -1 1e-06
    outer loop
      vertex 1.53884 -10 2
      vertex 1.17557 -10 0.881966
      vertex 3.00311 -10 0
    endloop
  endfacet
  facet normal 0 -1 1e-06
    outer loop
      vertex -3.00311 -10 2
      vertex -3.00311 -10 0
      vertex -1.17557 -10 0.881966
    endloop
  endfacet
  facet normal 0 -1 1e-06
    outer loop
      vertex 1.17557 -10 0.881966
      vertex -1.17557 -10 0.881966
      vertex 3.00311 -10 0
    endloop
  endfacet
  facet normal 0.59585 -0.681857 -0.424304
    outer loop
      vertex 5.99597 -8.6292 2
      vertex 3.00311 -10 0
      vertex 5.87479 -7.49054 0
    endloop
  endfacet
  facet normal 0.41642 -0.909172 9.09172e-07
    outer loop
      vertex 3.00311 -10 2
      vertex 3.00311 -10 0
      vertex 5.99597 -8.6292 2
    endloop
  endfacet
  facet normal 0.998169 0 -0.0604791
    outer loop
      vertex 5.99597 -8.6292 2
      vertex 5.87479 -7.49054 0
      vertex 5.87479 5.36489 0
    endloop
  endfacet
  facet normal 0.80112 0.394018 -0.450506
    outer loop
      vertex 5.87479 5.36489 0
      vertex 4 9.17674 0
      vertex 6.99948 5.3649 2
    endloop
  endfacet
  facet normal 0.869936 -0.0623826 -0.489204
    outer loop
      vertex 5.99597 -8.6292 2
      vertex 5.87479 5.36489 0
      vertex 6.99948 5.3649 2
    endloop
  endfacet
  facet normal 0.741723 0.65627 0.138406
    outer loop
      vertex 4 9.17674 0
      vertex 4 8.75494 2
      vertex 6.99948 5.3649 2
    endloop
  endfacet
  facet normal 0.291352 0.936026 0.197406
    outer loop
      vertex 4 9.17674 0
      vertex 0 10 2
      vertex 4 8.75494 2
    endloop
  endfacet
  facet normal 0.107622 0.345755 0.932132
    outer loop
      vertex 0 10 2
      vertex 0 1.91221 5
      vertex 4 8.75494 2
    endloop
  endfacet
  facet normal 0 0.401527 0.915847
    outer loop
      vertex 4 8.75494 2
      vertex 0 1.91221 5
      vertex 4 1.91221 5
    endloop
  endfacet
  facet normal 0.413248 0.365638 0.833988
    outer loop
      vertex 4 8.75494 2
      vertex 4 1.91221 5
      vertex 6.99948 5.3649 2
    endloop
  endfacet
  facet normal 0.658915 0.0776748 0.748197
    outer loop
      vertex 6.99948 5.3649 2
      vertex 4 1.91221 5
      vertex 4.5464 -2.7229 5
    endloop
  endfacet
  facet normal 0.672912 0.0690865 0.736489
    outer loop
      vertex 6.99948 5.3649 2
      vertex 4.5464 -2.7229 5
      vertex 5.15279 -8.6292 5
    endloop
  endfacet
  facet normal 0.413597 -0.903008 0.116246
    outer loop
      vertex 5.15279 -8.6292 5
      vertex 3.00311 -10 2
      vertex 5.99597 -8.6292 2
    endloop
  endfacet
  facet normal 0.537662 -0.84316 0
    outer loop
      vertex 3.00311 -10 5
      vertex 3.00311 -10 2
      vertex 5.15279 -8.6292 5
    endloop
  endfacet
  facet normal 0.960412 -0.0688706 0.269935
    outer loop
      vertex 5.86904 -5.5 3.25
      vertex 5.15279 -8.6292 5
      vertex 5.99597 -8.6292 2
    endloop
  endfacet
  facet normal 0.960412 -0.0688706 0.269935
    outer loop
      vertex 6.08417 -2.5 3.25
      vertex 5.15279 -8.6292 5
      vertex 5.86904 -5.5 3.25
    endloop
  endfacet
  facet normal 0.960412 -0.0688706 0.269935
    outer loop
      vertex 6.1501 -5.5 2.25
      vertex 5.86904 -5.5 3.25
      vertex 5.99597 -8.6292 2
    endloop
  endfacet
  facet normal 0.960412 -0.0688706 0.269935
    outer loop
      vertex 6.99948 5.3649 2
      vertex 5.15279 -8.6292 5
      vertex 6.08417 -2.5 3.25
    endloop
  endfacet
  facet normal 0.960412 -0.0688706 0.269935
    outer loop
      vertex 6.99948 5.3649 2
      vertex 6.36523 -2.5 2.25
      vertex 5.99597 -8.6292 2
    endloop
  endfacet
  facet normal 0.960412 -0.0688706 0.269935
    outer loop
      vertex 6.36523 -2.5 2.25
      vertex 6.1501 -5.5 2.25
      vertex 5.99597 -8.6292 2
    endloop
  endfacet
  facet normal 0.960412 -0.0688706 0.269935
    outer loop
      vertex 6.08417 -2.5 3.25
      vertex 6.36523 -2.5 2.25
      vertex 6.99948 5.3649 2
    endloop
  endfacet
  facet normal 0 -1 0
    outer loop
      vertex -3.00311 -10 5
      vertex -3.00311 -10 2
      vertex -1.53884 -10 2
    endloop
  endfacet
  facet normal 0 -1 0
    outer loop
      vertex -2.22044e-16 -10 4.5
      vertex -3.00311 -10 5
      vertex -1.90211 -10 3.11803
    endloop
  endfacet
  facet normal 0 -1 0
    outer loop
      vertex -1.90211 -10 3.11803
      vertex -3.00311 -10 5
      vertex -1.53884 -10 2
    endloop
  endfacet
  facet normal 0 -1 0
    outer loop
      vertex 3.00311 -10 5
      vertex -3.00311 -10 5
      vertex -2.22044e-16 -10 4.5
    endloop
  endfacet
  facet normal 0 -1 0
    outer loop
      vertex 3.00311 -10 5
      vertex -2.22044e-16 -10 4.5
      vertex 1.90211 -10 3.11803
    endloop
  endfacet
  facet normal 0 -1 0
    outer loop
      vertex 3.00311 -10 2
      vertex 1.90211 -10 3.11803
      vertex 1.53884 -10 2
    endloop
  endfacet
  facet normal 0 -1 0
    outer loop
      vertex 3.00311 -10 5
      vertex 1.90211 -10 3.11803
      vertex 3.00311 -10 2
    endloop
  endfacet
  facet normal 0.951057 0.309017 0
    outer loop
      vertex -4.40211 -4.38197 5
      vertex -3.67557 -6.61803 5
      vertex -3.67557 -6.61803 4
    endloop
  endfacet
  facet normal 0.951057 0.309017 0
    outer loop
      vertex -4.40211 -4.38197 4
      vertex -4.40211 -4.38197 5
      vertex -3.67557 -6.61803 4
    endloop
  endfacet
  facet normal 2.22045e-16 1 0
    outer loop
      vertex -1.32443 -6.61803 5
      vertex -1.32443 -6.61803 4
      vertex -3.67557 -6.61803 5
    endloop
  endfacet
  facet normal 2.22045e-16 1 0
    outer loop
      vertex -3.67557 -6.61803 5
      vertex -1.32443 -6.61803 4
      vertex -3.67557 -6.61803 4
    endloop
  endfacet
  facet normal -0.951057 0.309017 0
    outer loop
      vertex -0.597887 -4.38197 5
      vertex -0.597887 -4.38197 4
      vertex -1.32443 -6.61803 5
    endloop
  endfacet
  facet normal -0.951057 0.309017 0
    outer loop
      vertex -1.32443 -6.61803 5
      vertex -0.597887 -4.38197 4
      vertex -1.32443 -6.61803 4
    endloop
  endfacet
  facet normal -0.587785 -0.809017 0
    outer loop
      vertex -0.597887 -4.38197 4
      vertex -0.597887 -4.38197 5
      vertex -2.5 -3 5
    endloop
  endfacet
  facet normal -0.587785 -0.809017 0
    outer loop
      vertex -2.5 -3 4
      vertex -0.597887 -4.38197 4
      vertex -2.5 -3 5
    endloop
  endfacet
  facet normal 0.587785 -0.809017 0
    outer loop
      vertex -2.5 -3 4
      vertex -2.5 -3 5
      vertex -4.40211 -4.38197 5
    endloop
  endfacet
  facet normal 0.587785 -0.809017 0
    outer loop
      vertex -4.40211 -4.38197 4
      vertex -2.5 -3 4
      vertex -4.40211 -4.38197 5
    endloop
  endfacet
  facet normal 2.22045e-16 1 0
    outer loop
      vertex 3.67557 -6.61803 5
      vertex 3.67557 -6.61803 4
      vertex 1.32443 -6.61803 5
    endloop
  endfacet
  facet normal 2.22045e-16 1 0
    outer loop
      vertex 1.32443 -6.61803 5
      vertex 3.67557 -6.61803 4
      vertex 1.32443 -6.61803 4
    endloop
  endfacet
  facet normal 0.951057 0.309017 0
    outer loop
      vertex 0.597887 -4.38197 5
      vertex 1.32443 -6.61803 5
      vertex 1.32443 -6.61803 4
    endloop
  endfacet
  facet normal 0.951057 0.309017 0
    outer loop
      vertex 0.597887 -4.38197 4
      vertex 0.597887 -4.38197 5
      vertex 1.32443 -6.61803 4
    endloop
  endfacet
  facet normal -0.951057 0.309017 0
    outer loop
      vertex 4.40211 -4.38197 5
      vertex 4.40211 -4.38197 4
      vertex 3.67557 -6.61803 5
    endloop
  endfacet
  facet normal -0.951057 0.309017 0
    outer loop
      vertex 3.67557 -6.61803 5
      vertex 4.40211 -4.38197 4
      vertex 3.67557 -6.61803 4
    endloop
  endfacet
  facet normal -0.587785 -0.809017 0
    outer loop
      vertex 4.40211 -4.38197 4
      vertex 4.40211 -4.38197 5
      vertex 2.5 -3 5
    endloop
  endfacet
  facet normal -0.587785 -0.809017 0
    outer loop
      vertex 2.5 -3 4
      vertex 4.40211 -4.38197 4
      vertex 2.5 -3 5
    endloop
  endfacet
  facet normal 0.587785 -0.809017 0
    outer loop
      vertex 2.5 -3 4
      vertex 2.5 -3 5
      vertex 0.597887 -4.38197 5
    endloop
  endfacet
  facet normal 0.587785 -0.809017 0
    outer loop
      vertex 0.597887 -4.38197 4
      vertex 2.5 -3 4
      vertex 0.597887 -4.38197 5
    endloop
  endfacet
  facet normal -1 0 0
    outer loop
      vertex -4.5 -2.5 3.25
      vertex -4.5 -2.5 2.25
      vertex -4.5 -5.5 3.25
    endloop
  endfacet
  facet normal -1 0 0
    outer loop
      vertex -4.5 -5.5 3.25
      vertex -4.5 -2.5 2.25
      vertex -4.5 -5.5 2.25
    endloop
  endfacet
  facet normal 0.951057 -2.79792e-16 0.309017
    outer loop
      vertex -1.53884 -10 2
      vertex -1.17557 -10 0.881966
      vertex -1.17557 -9 0.881966
    endloop
  endfacet
  facet normal 0.951057 -2.79792e-16 0.309017
    outer loop
      vertex -1.90211 -10 3.11803
      vertex -1.53884 -10 2
      vertex -1.90211 -9 3.11803
    endloop
  endfacet
  facet normal 0.951057 -2.79792e-16 0.309017
    outer loop
      vertex -1.90211 -9 3.11803
      vertex -1.53884 -10 2
      vertex -1.17557 -9 0.881966
    endloop
  endfacet
  facet normal -4.93038e-32 -2.22045e-16 1
    outer loop
      vertex 1.17557 -10 0.881966
      vertex 1.17557 -9 0.881966
      vertex -1.17557 -9 0.881966
    endloop
  endfacet
  facet normal -4.93038e-32 -2.22045e-16 1
    outer loop
      vertex -1.17557 -10 0.881966
      vertex 1.17557 -10 0.881966
      vertex -1.17557 -9 0.881966
    endloop
  endfacet
  facet normal -0.951057 1.42561e-16 0.309017
    outer loop
      vertex 1.90211 -10 3.11803
      vertex 1.90211 -9 3.11803
      vertex 1.53884 -10 2
    endloop
  endfacet
  facet normal -0.951057 1.42561e-16 0.309017
    outer loop
      vertex 1.53884 -10 2
      vertex 1.90211 -9 3.11803
      vertex 1.17557 -9 0.881966
    endloop
  endfacet
  facet normal -0.951057 1.42561e-16 0.309017
    outer loop
      vertex 1.53884 -10 2
      vertex 1.17557 -9 0.881966
      vertex 1.17557 -10 0.881966
    endloop
  endfacet
  facet normal 0 0 -1
    outer loop
      vertex 6.08417 -2.5 3.25
      vertex 5.86904 -5.5 3.25
      vertex 4.5 -2.5 3.25
    endloop
  endfacet
  facet normal 0 0 -1
    outer loop
      vertex 4.5 -2.5 3.25
      vertex 5.86904 -5.5 3.25
      vertex 4.5 -5.5 3.25
    endloop
  endfacet
  facet normal 0 1 0
    outer loop
      vertex 5.86904 -5.5 3.25
      vertex 6.1501 -5.5 2.25
      vertex 4.5 -5.5 3.25
    endloop
  endfacet
  facet normal 0 1 0
    outer loop
      vertex 4.5 -5.5 3.25
      vertex 6.1501 -5.5 2.25
      vertex 4.5 -5.5 2.25
    endloop
  endfacet
  facet normal 0 0 1
    outer loop
      vertex 6.1501 -5.5 2.25
      vertex 6.36523 -2.5 2.25
      vertex 4.5 -2.5 2.25
    endloop
  endfacet
  facet normal 0 0 1
    outer loop
      vertex 4.5 -5.5 2.25
      vertex 6.1501 -5.5 2.25
      vertex 4.5 -2.5 2.25
    endloop
  endfacet
  facet normal 0 -1 0
    outer loop
      vertex 6.36523 -2.5 2.25
      vertex 6.08417 -2.5 3.25
      vertex 4.5 -2.5 3.25
    endloop
  endfacet
  facet normal 0 -1 0
    outer loop
      vertex 4.5 -2.5 2.25
      vertex 6.36523 -2.5 2.25
      vertex 4.5 -2.5 3.25
    endloop
  endfacet
  facet normal -0.587785 3.10152e-16 -0.809017
    outer loop
      vertex 1.90211 -9 3.11803
      vertex 1.90211 -10 3.11803
      vertex 0 -9 4.5
    endloop
  endfacet
  facet normal -0.587785 3.10152e-16 -0.809017
    outer loop
      vertex 0 -9 4.5
      vertex 1.90211 -10 3.11803
      vertex -2.22044e-16 -10 4.5
    endloop
  endfacet
  facet normal 0.587785 4.91233e-17 -0.809017
    outer loop
      vertex 0 -9 4.5
      vertex -2.22044e-16 -10 4.5
      vertex -1.90211 -9 3.11803
    endloop
  endfacet
  facet normal 0.587785 4.91233e-17 -0.809017
    outer loop
      vertex -1.90211 -9 3.11803
      vertex -2.22044e-16 -10 4.5
      vertex -1.90211 -10 3.11803
    endloop
  endfacet
  facet normal 0 0 1
    outer loop
      vertex -3.67557 -6.61803 4
      vertex -1.32443 -6.61803 4
      vertex -0.597887 -4.38197 4
    endloop
  endfacet
  facet normal 0 0 1
    outer loop
      vertex -4.40211 -4.38197 4
      vertex -3.67557 -6.61803 4
      vertex -2.5 -3 4
    endloop
  endfacet
  facet normal 0 0 1
    outer loop
      vertex -2.5 -3 4
      vertex -3.67557 -6.61803 4
      vertex -0.597887 -4.38197 4
    endloop
  endfacet
  facet normal 0 0 1
    outer loop
      vertex 1.32443 -6.61803 4
      vertex 3.67557 -6.61803 4
      vertex 4.40211 -4.38197 4
    endloop
  endfacet
  facet normal 0 0 1
    outer loop
      vertex 0.597887 -4.38197 4
      vertex 1.32443 -6.61803 4
      vertex 2.5 -3 4
    endloop
  endfacet
  facet normal 0 0 1
    outer loop
      vertex 2.5 -3 4
      vertex 1.32443 -6.61803 4
      vertex 4.40211 -4.38197 4
    endloop
  endfacet
  facet normal -2.22045e-16 -1 -2.22045e-16
    outer loop
      vertex -1.17557 -9 0.881966
      vertex 1.17557 -9 0.881966
      vertex 1.90211 -9 3.11803
    endloop
  endfacet
  facet normal -2.22045e-16 -1 -2.22045e-16
    outer loop
      vertex -1.90211 -9 3.11803
      vertex -1.17557 -9 0.881966
      vertex 0 -9 4.5
    endloop
  endfacet
  facet normal -2.22045e-16 -1 -2.22045e-16
    outer loop
      vertex 0 -9 4.5
      vertex -1.17557 -9 0.881966
      vertex 1.90211 -9 3.11803
    endloop
  endfacet
  facet normal 1 0 0
    outer loop
      vertex 4.5 -2.5 2.25
      vertex 4.5 -2.5 3.25
      vertex 4.5 -5.5 3.25
    endloop
  endfacet
  facet normal 1 0 0
    outer loop
      vertex 4.5 -5.5 2.25
      vertex 4.5 -2.5 2.25
      vertex 4.5 -5.5 3.25
    endloop
  endfacet
endsolid OpenSCAD_Model
